<svg width="182" height="208" viewBox="0 0 182 208" fill="none" xmlns="http://www.w3.org/2000/svg">
<path d="M162.359 79.0452L98.5228 11.3462C93.6261 6.85935 86.2391 6.85935 81.1823 11.4994L16.733 78.8855C-1.32428 95.633 -5.1045 121.15 7.10259 143.884C15.8295 160.138 32.3469 170.662 50.2143 171.346C61.5448 171.832 66.745 168.256 73.2652 162.282V172.009C73.2652 177.529 71.8187 182.979 69.0783 187.773L63.2215 198.027C62.0281 200.117 62.0347 202.603 63.2414 204.68C64.4481 206.761 66.6048 208 69.0084 208H110.856C113.26 208 115.413 206.761 116.62 204.68C117.827 202.604 117.837 200.117 116.643 198.027L110.783 187.773C108.046 182.979 106.6 177.532 106.6 172.009V162.402C112.387 167.952 117.12 171.809 128.857 171.342C146.321 170.625 162.755 160.931 171.739 146.045C188.396 118.45 177.012 92.6227 162.359 79.0452ZM160.325 139.158C156.338 145.761 150.445 151.021 143.278 154.355C138.518 156.575 133.481 157.809 128.311 158.018C128.264 158.022 128.217 158.022 128.171 158.022C126.394 158.022 124.918 156.618 124.844 154.825C124.768 152.985 126.198 151.435 128.038 151.358C132.321 151.182 136.505 150.158 140.465 148.312C146.338 145.575 151.365 141.101 154.619 135.715C160.422 126.098 161.179 116.088 156.869 105.964C156.149 104.27 156.936 102.31 158.629 101.59C160.322 100.87 162.283 101.66 163.003 103.354C168.125 115.387 167.202 127.767 160.325 139.158Z" fill="black"/>
<path d="M90 50H174M132 8V92" stroke="#00FF00" stroke-width="16" stroke-linecap="round" stroke-linejoin="round"/>
</svg>
